<svg width="229" height="101" viewBox="0 0 229 101" xmlns="http://www.w3.org/2000/svg"><title>ethsingapore (1)</title><g fill="#FFF"><path d="M41.682 46.234a1.5 1.5 0 0 1-.283-.877V1.981a1.5 1.5 0 0 1 1.5-1.5h53a1.5 1.5 0 0 1 1.275 2.29L88.56 16.68a1.5 1.5 0 0 1-1.276.711h-11.19c-4.15 0-6.086 1.896-6.177 4.864-.075 2.464 1.286 4.773 2.275 4.773h7.712a1.5 1.5 0 0 1 1.27 2.299L72.91 42.472a1.5 1.5 0 0 1-2.54-1.597l6.819-10.846h-4.997c-3.079 0-5.394-3.928-5.274-7.864.14-4.583 3.399-7.773 9.176-7.773h10.355l6.757-10.911H44.399v41.392l38.046 52.81c.715.993.006 2.378-1.217 2.378H65.371a1.5 1.5 0 0 1-1.219-.625L53.18 84.159l-9.543 15.2a1.5 1.5 0 1 1-2.541-1.596l10.73-17.089a1.5 1.5 0 0 1 2.488-.077L66.14 97.06H78.3L41.682 46.234zm3.036 31.47a1.5 1.5 0 1 1-2.388 1.816L30.66 64.17a1.5 1.5 0 0 1-.307-.908V22.064H9.567l-4.652 7.552h17.938a1.5 1.5 0 0 1 0 3H2.23a1.5 1.5 0 0 1-1.277-2.287l6.5-10.552a1.5 1.5 0 0 1 1.277-.713h23.124a1.5 1.5 0 0 1 1.5 1.5v42.194l11.365 14.946z"/><path d="M32.175 99.339a1.5 1.5 0 0 1-2.518-1.632l9.061-13.978a1.5 1.5 0 0 1 2.48-.056l5.754 8.055a1.5 1.5 0 1 1-2.44 1.744l-4.475-6.262-7.862 12.129z"/><path d="M21.925 99.261a1.5 1.5 0 1 1-2.543-1.591l6.63-10.594a1.5 1.5 0 0 1 2.47-.107l5.362 7.121a1.5 1.5 0 0 1-2.397 1.805l-4.05-5.378-5.472 8.744zm.895-59.079a1.5 1.5 0 1 1 0 3H6.407a1.5 1.5 0 0 1-1.277-2.286l6.5-10.566a1.5 1.5 0 1 1 2.555 1.572l-5.094 8.28H22.82z"/><path d="M22.82 50.739a1.5 1.5 0 1 1 0 3H10.4a1.5 1.5 0 0 1-1.271-2.298l6-9.56a1.5 1.5 0 0 1 2.54 1.594l-4.558 7.264h9.709zM41.935 3.17a1.5 1.5 0 1 1 2.436-1.75l34.53 48.043a1.5 1.5 0 0 1 .053 1.672L72.161 61.98a1.5 1.5 0 1 1-2.542-1.593l6.258-9.992L41.935 3.171z"/><path d="M42.186 25.463a1.5 1.5 0 1 1 2.426-1.764l38 52.28a1.5 1.5 0 0 1 .057 1.682l-6.43 10.222a1.5 1.5 0 1 1-2.54-1.597l5.89-9.363-37.403-51.46zm.925 33.749a1.5 1.5 0 1 1 2.576 1.537l-3 5.027a1.5 1.5 0 1 1-2.576-1.537l3-5.027zm12 16a1.5 1.5 0 1 1 2.576 1.537l-3 5.027a1.5 1.5 0 1 1-2.576-1.537l3-5.027zm9.5 3a1.5 1.5 0 1 1 2.576 1.537l-3 5.027a1.5 1.5 0 1 1-2.576-1.537l3-5.027zM67.68 91.31a1.5 1.5 0 0 1 2.565 1.557l-2.761 4.547a1.5 1.5 0 0 1-2.565-1.556l2.761-4.548zM34.154 56.785a1.5 1.5 0 0 1 2.49 1.672l-3.5 5.213a1.5 1.5 0 0 1-2.49-1.672l3.5-5.213zm11.784 15.447a1.5 1.5 0 0 1 2.512 1.64l-3.643 5.58a1.5 1.5 0 0 1-2.512-1.64l3.643-5.58zm-4.325-27.523a1.5 1.5 0 0 1 2.572 1.544l-3 5a1.5 1.5 0 0 1-2.572-1.544l3-5zm11.152 16.045a1.5 1.5 0 1 1 2.572 1.544l-3 5a1.5 1.5 0 0 1-2.572-1.544l3-5zm1.865-45.391a1.5 1.5 0 1 1-2.462-1.714L55.99 8.16a1.5 1.5 0 1 1 2.462 1.715l-3.822 5.487zm10.77-5.347a1.5 1.5 0 1 1 0-3h6.662a1.5 1.5 0 1 1 0 3H65.4zm121.716 36.218a1.5 1.5 0 0 0 .283-.877V1.981a1.5 1.5 0 0 0-1.5-1.5h-53a1.5 1.5 0 0 0-1.275 2.29l8.614 13.91a1.5 1.5 0 0 0 1.276.711h11.19c4.15 0 6.086 1.896 6.177 4.864.076 2.464-1.286 4.773-2.275 4.773h-7.712a1.5 1.5 0 0 0-1.27 2.299l8.264 13.144a1.5 1.5 0 1 0 2.54-1.597L151.61 30.03h4.997c3.079 0 5.394-3.928 5.274-7.864-.14-4.583-3.398-7.773-9.176-7.773H142.35l-6.757-10.911H184.4v41.392l-38.046 52.81c-.715.993-.006 2.378 1.217 2.378h15.857a1.5 1.5 0 0 0 1.219-.625L175.62 84.16l9.542 15.2a1.5 1.5 0 1 0 2.541-1.596l-10.73-17.089a1.5 1.5 0 0 0-2.488-.077L162.658 97.06h-12.159l36.617-50.827zm-45.602-31.842l1.275.71-.44-.71h-.835zm42.566 63.312a1.5 1.5 0 1 0 2.388 1.816l11.672-15.35a1.5 1.5 0 0 0 .306-.908V22.064h20.786l4.652 7.552h-17.938a1.5 1.5 0 1 0 0 3h20.624a1.5 1.5 0 0 0 1.277-2.287l-6.5-10.552a1.5 1.5 0 0 0-1.277-.713h-23.124a1.5 1.5 0 0 0-1.5 1.5v42.194L184.08 77.704z"/><path d="M196.623 99.339a1.5 1.5 0 0 0 2.518-1.632l-9.06-13.978a1.5 1.5 0 0 0-2.48-.056l-5.755 8.055a1.5 1.5 0 1 0 2.441 1.744l4.474-6.262 7.862 12.129z"/><path d="M206.873 99.261a1.5 1.5 0 0 0 2.543-1.591l-6.63-10.594a1.5 1.5 0 0 0-2.47-.107l-5.362 7.121a1.5 1.5 0 0 0 2.397 1.805l4.05-5.378 5.472 8.744zm-.897-59.079a1.5 1.5 0 0 0 0 3h16.413a1.5 1.5 0 0 0 1.277-2.286l-6.5-10.566a1.5 1.5 0 0 0-2.555 1.572l5.094 8.28h-13.73z"/><path d="M205.976 50.739a1.5 1.5 0 0 0 0 3h12.42a1.5 1.5 0 0 0 1.271-2.298l-6-9.56a1.5 1.5 0 0 0-2.54 1.594l4.557 7.264h-9.708zM186.863 3.17a1.5 1.5 0 0 0-2.436-1.75l-34.53 48.043a1.5 1.5 0 0 0-.053 1.672l6.793 10.846a1.5 1.5 0 1 0 2.542-1.593l-6.258-9.992 33.942-47.225z"/><path d="M186.612 25.463a1.5 1.5 0 0 0-2.426-1.764l-38 52.28a1.5 1.5 0 0 0-.057 1.682l6.43 10.222a1.5 1.5 0 0 0 2.54-1.597l-5.89-9.363 37.403-51.46zm-.925 33.749a1.5 1.5 0 1 0-2.576 1.537l3 5.027a1.5 1.5 0 1 0 2.576-1.537l-3-5.027zm-12 16a1.5 1.5 0 1 0-2.576 1.537l3 5.027a1.5 1.5 0 1 0 2.576-1.537l-3-5.027zm-9.5 3a1.5 1.5 0 1 0-2.576 1.537l3 5.027a1.5 1.5 0 1 0 2.576-1.537l-3-5.027zm-3.069 13.098a1.5 1.5 0 0 0-2.564 1.557l2.76 4.547a1.5 1.5 0 0 0 2.565-1.556l-2.76-4.548zm33.526-34.525a1.5 1.5 0 0 0-2.49 1.672l3.5 5.213a1.5 1.5 0 0 0 2.49-1.672l-3.5-5.213zM182.86 72.232a1.5 1.5 0 1 0-2.512 1.64l3.643 5.58a1.5 1.5 0 0 0 2.512-1.64l-3.643-5.58zm4.325-27.523a1.5 1.5 0 1 0-2.572 1.544l3 5a1.5 1.5 0 1 0 2.572-1.544l-3-5zm-11.152 16.045a1.5 1.5 0 1 0-2.572 1.544l3 5a1.5 1.5 0 0 0 2.572-1.544l-3-5zm-1.865-45.391a1.5 1.5 0 1 0 2.462-1.714l-3.822-5.488a1.5 1.5 0 1 0-2.462 1.715l3.822 5.487zM163.4 10.016a1.5 1.5 0 0 0 0-3h-6.664a1.5 1.5 0 0 0 0 3h6.663zm-50.245-1.413a1.5 1.5 0 0 1 2.573 0l26.36 43.94a1.5 1.5 0 0 1-.518 2.06l-26.36 15.71a1.5 1.5 0 0 1-1.536 0l-26.361-15.71a1.5 1.5 0 0 1-.519-2.06l26.361-43.94zM90.141 52.795l24.3 14.483 24.3-14.483-24.3-40.504-24.3 40.504z"/><path d="M89.054 54.474a1.5 1.5 0 0 1-1.31-2.7l25.7-12.467c.41-.2.89-.2 1.301-.004L140.85 51.77a1.5 1.5 0 1 1-1.293 2.707L114.104 42.32l-25.05 12.153z"/><path d="M115.9 67.3a1.5 1.5 0 0 1-3 0V9.992a1.5 1.5 0 0 1 3 0V67.3zm0 29.151a1.5 1.5 0 0 1-3 0v-18.6a1.5 1.5 0 0 1 3 0v18.6z"/><path d="M140.028 60.575c1.395-.84 2.942.833 1.994 2.158l-26.36 36.829a1.5 1.5 0 0 1-2.44 0L86.86 62.732c-.948-1.324.598-2.998 1.994-2.157l25.587 15.411 25.586-15.411zm-24.813 15.877h-1.547l.774-.466.773.466zm0 2.57a1.5 1.5 0 0 1-1.547 0L93.526 66.891l20.916 29.22 20.914-29.22-20.14 12.131z"/></g></svg>